<?xml version="1.0" encoding="UTF-8" standalone="no"?>
<svg
   xmlns:dc="http://purl.org/dc/elements/1.1/"
   xmlns:cc="http://creativecommons.org/ns#"
   xmlns:rdf="http://www.w3.org/1999/02/22-rdf-syntax-ns#"
   xmlns:svg="http://www.w3.org/2000/svg"
   xmlns="http://www.w3.org/2000/svg"
   xmlns:sodipodi="http://sodipodi.sourceforge.net/DTD/sodipodi-0.dtd"
   xmlns:inkscape="http://www.inkscape.org/namespaces/inkscape"
   width="111.53716mm"
   height="91.265007mm"
   viewBox="0 0 111.53715 91.265005"
   version="1.1"
   id="svg8"
   inkscape:export-filename="logo-5791b4ff.png"
   inkscape:export-xdpi="96"
   inkscape:export-ydpi="96"
   inkscape:version="1.1-dev (ddb55ca, 2020-02-02)"
   sodipodi:docname="logo-only.svg">
  <defs
     id="defs2" />
  <sodipodi:namedview
     id="base"
     pagecolor="#ffffff"
     bordercolor="#666666"
     borderopacity="1.0"
     inkscape:pageopacity="0.0"
     inkscape:pageshadow="2"
     inkscape:zoom="0.65736145"
     inkscape:cx="40.99579"
     inkscape:cy="266.40443"
     inkscape:document-units="mm"
     inkscape:current-layer="layer1"
     showgrid="false"
     lock-margins="true"
     fit-margin-top="0"
     fit-margin-left="0"
     fit-margin-right="0"
     fit-margin-bottom="0"
     showguides="false"
     inkscape:snap-text-baseline="true"
     inkscape:window-width="1251"
     inkscape:window-height="855"
     inkscape:window-x="69"
     inkscape:window-y="23"
     inkscape:window-maximized="0">
    <sodipodi:guide
       position="43.596115,118.024"
       orientation="0,-1"
       id="guide923" />
    <inkscape:grid
       type="xygrid"
       id="grid947"
       originx="-7.0467964e-07"
       originy="-2.6414459e-07" />
  </sodipodi:namedview>
  <metadata
     id="metadata5">
    <rdf:RDF>
      <cc:Work
         rdf:about="">
        <dc:format>image/svg+xml</dc:format>
        <dc:type
           rdf:resource="http://purl.org/dc/dcmitype/StillImage" />
        <dc:title></dc:title>
      </cc:Work>
    </rdf:RDF>
  </metadata>
  <g
     inkscape:label="Layer 1"
     inkscape:groupmode="layer"
     id="layer1"
     transform="translate(-34.910607,-16.339006)">
    <g
       id="g72"
       transform="matrix(0.03527778,0,0,-0.03527778,-0.82250333,135.33945)">
      <path
         d="m 3298.16,2243.89 v 249.86 h 93.54 c 111.03,0 192.4,24.54 244.09,73.68 51.68,49.11 77.53,121.51 77.53,217.18 0,93.09 -26.49,163.8 -79.45,212.06 -52.98,48.25 -129.86,72.4 -230.64,72.4 h -105.07 l -298.55,274.2 h 297.27 c 132.41,0 237.89,-10.25 316.49,-30.75 79.44,-20.5 146.5,-55.09 201.17,-103.79 55.52,-50.41 99.5,-113.2 131.98,-188.35 33.31,-76.04 49.97,-152.93 49.97,-230.64 0,-141.8 -54.26,-261.84 -162.73,-360.06 105.07,-35.88 187.91,-98.66 248.58,-188.35 61.5,-88.86 92.25,-192.2 92.25,-310.08 0,-154.62 -54.67,-285.31 -164.01,-392.09 -65.79,-65.8 -139.66,-111.48 -221.67,-137.1 -89.69,-24.79 -202.02,-37.16 -336.99,-37.16 h -452.31 l 298.55,280.61 h 184.52 c 134.96,0 234.03,26.46 297.26,79.44 66.63,57.22 99.95,129.84 99.95,217.83 0,85.4 -32.04,157.16 -96.1,215.26 -62.36,57.22 -173.84,85.85 -334.43,85.85 h -151.2"
         style="fill:#4eabbf;fill-opacity:1;fill-rule:nonzero;stroke:none"
         id="path80"
         inkscape:connector-curvature="0"
         inkscape:export-xdpi="96"
         inkscape:export-ydpi="96" />
      <path
         d="m 3556.62,1156.35 c -40.74,-135.56 -301.83,-201.709 -420.57,-200.651 -239.72,2.153 -550.62,150.891 -558.25,442.631 -9.09,347.63 328.56,750.23 526.58,1031.15 33.3,47.24 5.22,263.27 -53.73,190.89 -281.61,-345.77 -639.9,-576.71 -972.64,-853.42 53.82,92.56 110.3,183.62 167.24,274.26 125.58,199.87 258.2,395.53 379.84,597.84 26.24,43.64 10.51,266.18 -53.73,190.89 -179.44,-210.31 -370.02,-407.52 -573.3,-594.84 -125.49,-115.64 -258.07,-224.46 -381.74,-341.93 -26.3,-24.98 -51.48,-51.24 -76.33,-77.84 170.69,288.81 372.68,555.44 589.32,822.98 102.02,125.99 173.19,269.81 153.28,495.46 -19.72,223.45 -196.59,253.09 -390.46,235.07 -394.3,-36.64 -977.153,-287.3 -865.19,-779.82 32.28,-142.02 178.6,-309.1 340.69,-227.74 130.65,65.58 127.3,233.85 78.98,349.59 -44.96,107.67 -16.6,-165.82 -89.49,-210.67 -72.89,-44.86 -482.202,140.17 -45.37,444.93 137.9,96.2 307.33,156.5 471.78,186.2 83.41,15.07 372.08,64.86 391.92,-39.5 17.43,-91.65 -141.43,-313.07 -193.03,-380.11 -288.03,-374.27 -551.04,-743.56 -738.2,-1176.63 -12.33,-28.54 -17.59,-225.86 51.81,-184.75 140.83,83.44 234.27,217.64 351.38,328.95 138.24,131.4 286.4,252.83 426.03,382.92 l -6.87,-32.83 c -99.42,-165.96 -262.17,-383.17 -232.29,-589.45 2.21,-15.31 27.49,-109.04 61.64,-76.22 227.23,218.38 478.7,397.06 717.95,591.75 -104.26,-218.56 -154,-452.62 -82.33,-719.54 156.28,-581.99 1004.18,-547.522 1111.7,-189.79 21.42,71.29 -45.14,248.22 -86.62,110.22"
         style="fill:#252929;fill-opacity:1;fill-rule:nonzero;stroke:none"
         id="path82"
         inkscape:connector-curvature="0"
         inkscape:export-xdpi="96"
         inkscape:export-ydpi="96" />
    </g>
  </g>
</svg>
